Coordinates
version=1
nRows=12
nColumns=34
inDegrees=yes

Units are S.I. units (second, meters, Newtons, ...)
If the header above contains a line with 'inDegrees', this indicates whether rotational values are in degrees (yes) or radians (no).

endheader
time	pelvis_tilt	pelvis_list	pelvis_rotation	pelvis_tx	pelvis_ty	pelvis_tz	hip_flexion_r	hip_adduction_r	hip_rotation_r	knee_angle_r	ankle_angle_r	subtalar_angle_r	mtp_angle_r	hip_flexion_l	hip_adduction_l	hip_rotation_l	knee_angle_l	ankle_angle_l	subtalar_angle_l	mtp_angle_l	lumbar_extension	lumbar_bending	lumbar_rotation	arm_flex_r	arm_add_r	arm_rot_r	elbow_flex_r	pro_sup_r	arm_flex_l	arm_add_l	arm_rot_l	elbow_flex_l	pro_sup_l
      1.75000000	     -8.83044666	     -1.28268474	      3.82118384	     -5.00670440	      0.88711590	      0.16291665	     17.57624244	      9.56569114	      1.72695964	     51.27153994	     24.82953407	    -23.72220711	      0.00000000	     32.44236045	     -0.15307457	      3.30292347	     80.49692451	     -0.56152226	    -27.62093281	      0.00000000	     -5.04499124	      2.22101138	     -7.41221956	     60.43590983	     -5.89842049	     15.79928523	    149.24859193	    108.93820299	      2.05106523	    -11.37109784	    -40.80527903	     37.53168277	     79.42484951
      1.76666670	     -8.72805146	     -0.01851243	      3.66453121	     -4.97042219	      0.89569103	      0.15854423	     13.69545423	      7.65657547	      1.56413525	     48.50989702	     21.96937770	    -23.59763335	      0.00000000	     35.11630488	      1.19359005	      2.82508163	     79.01559566	      2.75719185	    -26.31712888	      0.00000000	     -5.31435569	      0.18904779	     -6.72902522	     58.87340367	     -6.32183102	     14.99211848	    149.72427500	    110.47754129	     -0.35768877	    -11.79837696	    -44.16191399	     37.93763369	     78.45896551
      1.78333330	     -8.33394529	      1.28790009	      3.22765333	     -4.93714881	      0.90234301	      0.15579078	      8.98022489	      5.79664637	      1.72077315	     44.48461791	     19.55698240	    -23.04452006	      0.00000000	     37.07698563	      2.11228546	      1.51569801	     77.28853833	      3.12575744	    -26.54555215	      0.00000000	     -5.44765284	     -1.59119152	     -6.18279057	     58.32564706	     -6.23971522	     14.80772625	    148.86447615	    112.11062471	     -1.87082849	    -12.62925936	    -47.84148588	     36.56318116	     77.58844539
      1.80000000	     -7.99276362	      2.72188340	      2.45212260	     -4.89997244	      0.91009799	      0.15272751	      4.12236726	      3.48019226	      1.61402120	     39.55347122	     15.71315473	    -22.66402284	      0.00000000	     38.98440361	      3.06879297	     -0.21090559	     74.54262740	      3.64997240	    -27.26818324	      0.00000000	     -5.37855490	     -3.46478524	     -5.36416646	     58.15882913	     -6.06921774	     14.47683628	    147.97768870	    112.90332329	     -3.17221738	    -13.74269166	    -50.29545157	     35.13188206	     77.16388400
      1.81666670	     -7.89735539	      3.79869505	      1.92530852	     -4.86675869	      0.91952293	      0.14863813	     -0.27495330	      1.27771954	      0.54834284	     33.91095046	     11.72208075	    -22.15168902	      0.00000000	     40.55566625	      3.86304015	     -1.53531290	     71.18085477	      5.11158641	    -26.92081225	      0.00000000	     -5.15484240	     -4.93491847	     -4.59549610	     57.82435508	     -6.41786219	     14.13838739	    147.17987930	    113.62014140	     -3.75746584	    -14.76744361	    -52.94014324	     33.67234080	     76.81055833
      1.83333330	     -7.49453314	      4.54765561	      0.97951131	     -4.83717922	      0.93482589	      0.14713331	     -4.26029973	     -0.43891655	      0.25732467	     28.61383223	      6.90008827	    -21.42226123	      0.00000000	     41.69067653	      4.20854252	     -2.65389913	     67.16055189	      5.34049188	    -26.09362155	      0.00000000	     -5.61035817	     -6.02602726	     -3.46594467	     58.44454482	     -6.69837622	     13.97810733	    146.28364619	    114.16284873	     -4.22466127	    -15.50134052	    -55.08863944	     32.34491171	     76.64115365
      1.85000000	     -6.46593926	      4.91345143	     -0.49626977	     -4.80335398	      0.95323194	      0.14329688	     -7.65207727	     -1.95276384	      0.49924876	     24.50325702	      3.24757345	    -20.12587444	      0.00000000	     42.04123967	      4.04420328	     -3.84397147	     62.32120737	      5.16508023	    -24.13159525	      0.00000000	     -6.56467745	     -6.62383563	     -1.82586104	     58.78123153	     -6.97042718	     14.39417733	    145.84670753	    114.43440242	     -4.47235301	    -15.84750238	    -55.48524133	     32.50387511	     76.71067249
      1.86666670	     -5.74175571	      5.69254949	     -1.49756886	     -4.76349576	      0.96395148	      0.13852706	    -10.67595625	     -3.80021539	      0.96369774	     21.28696028	      0.96565315	    -17.68781253	      0.00000000	     41.43924956	      4.41115519	     -5.19581161	     56.87081815	      4.45832583	    -22.46269213	      0.00000000	     -6.90534376	     -7.69848236	     -0.65108393	     58.60278794	     -7.02112913	     14.97650425	    145.94763056	    114.67572448	     -5.36565299	    -16.26899584	    -55.43835530	     32.79985462	     76.79618456
      1.88333330	     -4.73298499	      6.29784226	     -2.15695508	     -4.72593513	      0.97443102	      0.13458931	    -14.03451266	     -5.48758457	      0.65704789	     18.69760370	     -2.74485646	    -15.36299393	      0.00000000	     40.12536964	      4.77689822	     -6.31410237	     51.50292250	      2.40211181	    -21.54988972	      0.00000000	     -7.66321523	     -8.55024848	      0.47038418	     58.86838556	     -7.12696201	     15.96132056	    146.01201510	    114.90286358	     -5.46573120	    -16.63163327	    -54.82020319	     33.11180809	     76.94611265
      1.90000000	     -3.98462548	      6.63262701	     -1.92360688	     -4.68760380	      0.98275005	      0.12791322	    -15.86968621	     -6.32748327	      1.81772951	     19.66814774	     -4.91211221	    -14.66497637	      0.00000000	     38.77363548	      5.71329670	     -6.54754679	     46.35066786	     -0.60645360	    -21.18714223	      0.00000000	     -8.03130149	     -8.84694174	      1.61955257	     59.68784651	     -7.62738707	     16.89765273	    145.84337441	    115.05692661	     -5.00339376	    -17.23665767	    -52.67615370	     34.28343574	     77.26033322
      1.91666670	     -3.57067076	      6.93700473	     -1.42394207	     -4.65039448	      0.98434005	      0.12333781	    -16.39607754	     -6.70325806	      4.61286463	     22.83424463	     -4.83037917	    -16.47002909	      0.00000000	     37.23502210	      6.75649972	     -6.56409613	     42.05630327	     -1.53388644	    -19.07430658	      0.00000000	     -7.95337468	     -8.93944000	      2.11635989	     60.88531118	     -7.21781133	     18.14940557	    146.11446004	    115.12487381	     -3.91661923	    -18.50936845	    -50.87136525	     33.83663733	     77.48735402
      1.93333330	     -3.87751787	      8.19755847	     -0.62688507	     -4.60931217	      0.98207716	      0.12000530	    -16.73074994	     -7.56750159	      6.53945153	     27.12376502	     -3.62004669	    -17.45764656	      0.00000000	     36.06939809	      8.81879750	     -6.34989504	     38.74709849	     -2.37478296	    -17.71221856	      0.00000000	     -6.54440972	    -10.33787736	      2.13788571	     60.90899604	     -6.41523721	     18.59492030	    145.92960492	    115.14925483	     -2.99729566	    -20.05610483	    -50.54070774	     34.18256862	     77.53242704
